<?xml version="1.0" standalone="no"?><svg xmlns="http://www.w3.org/2000/svg" viewBox="0 0 1440 320"><path fill="#0099ff" fill-opacity="1" d="M0,192L24,176C48,160,96,128,144,117.3C192,107,240,117,288,138.7C336,160,384,192,432,186.7C480,181,528,139,576,122.7C624,107,672,117,720,138.7C768,160,816,192,864,176C912,160,960,96,1008,80C1056,64,1104,96,1152,122.7C1200,149,1248,171,1296,181.3C1344,192,1392,192,1416,192L1440,192L1440,0L1416,0C1392,0,1344,0,1296,0C1248,0,1200,0,1152,0C1104,0,1056,0,1008,0C960,0,912,0,864,0C816,0,768,0,720,0C672,0,624,0,576,0C528,0,480,0,432,0C384,0,336,0,288,0C240,0,192,0,144,0C96,0,48,0,24,0L0,0Z"></path></svg>